<svg width="24" height="24" viewBox="0 0 24 24" fill="none" xmlns="http://www.w3.org/2000/svg">
<path d="M12 23.375C5.71836 23.375 0.625 18.2816 0.625 12C0.625 5.71836 5.71836 0.625 12 0.625C18.2816 0.625 23.375 5.71836 23.375 12C23.375 18.2816 18.2816 23.375 12 23.375ZM12 2.55469C6.78477 2.55469 2.55469 6.78477 2.55469 12C2.55469 17.2152 6.78477 21.4453 12 21.4453C17.2152 21.4453 21.4453 17.2152 21.4453 12C21.4453 6.78477 17.2152 2.55469 12 2.55469ZM12.1422 16.0803C13.4879 16.0803 14.402 15.2221 14.5035 13.9627C14.5111 13.8561 14.6 13.7748 14.7066 13.7748H16.1463C16.2123 13.7748 16.2656 13.8281 16.2656 13.8941C16.2656 16.0955 14.5289 17.6367 12.1346 17.6367C9.34414 17.6367 7.73438 15.7527 7.73438 12.6398V11.3119C7.73438 8.22188 9.34414 6.36328 12.1346 6.36328C14.5213 6.36328 16.2656 7.85625 16.2656 9.95352C16.2656 10.0195 16.2123 10.0729 16.1463 10.0729H14.7041C14.5975 10.0729 14.5111 9.9916 14.501 9.8875C14.3943 8.71699 13.4828 7.91211 12.1396 7.91211C10.4816 7.91211 9.54727 9.12832 9.54727 11.3043V12.6398C9.5498 14.8488 10.4867 16.0803 12.1422 16.0803Z" fill="white"/>
</svg>
